<?xml version="1.0" encoding="UTF-8"?>
<svg xmlns="http://www.w3.org/2000/svg" viewBox="0 0 100 100" width="100" height="100">
  <defs>
    <linearGradient id="femaleGradient" x1="0%" y1="0%" x2="100%" y2="100%">
      <stop offset="0%" style="stop-color:#ff6b6b;stop-opacity:1" />
      <stop offset="100%" style="stop-color:#ff8e53;stop-opacity:1" />
    </linearGradient>
  </defs>
  
  <!-- Fondo circular -->
  <circle cx="50" cy="50" r="48" fill="url(#femaleGradient)" stroke="#ffffff" stroke-width="2"/>
  
  <!-- Cara -->
  <circle cx="50" cy="35" r="16" fill="#fdbcb4"/>
  
  <!-- Cabello largo -->
  <path d="M 30 25 Q 50 10 70 25 Q 72 35 68 45 Q 65 55 50 55 Q 35 55 32 45 Q 28 35 30 25" fill="#8b4513"/>
  
  <!-- Ojos -->
  <circle cx="44" cy="32" r="2" fill="#333"/>
  <circle cx="56" cy="32" r="2" fill="#333"/>
  
  <!-- Pestañas -->
  <path d="M 42 29 L 41 27" stroke="#333" stroke-width="1"/>
  <path d="M 46 29 L 46 26" stroke="#333" stroke-width="1"/>
  <path d="M 54 29 L 54 26" stroke="#333" stroke-width="1"/>
  <path d="M 58 29 L 59 27" stroke="#333" stroke-width="1"/>
  
  <!-- Labios -->
  <ellipse cx="50" cy="42" rx="3" ry="1.5" fill="#ff69b4"/>
  
  <!-- Cuerpo/Blusa -->
  <path d="M 34 52 Q 34 65 40 75 L 60 75 Q 66 65 66 52 Q 62 50 58 52 L 42 52 Q 38 50 34 52" fill="#ff6b6b"/>
  
  <!-- Collar elegante -->
  <path d="M 42 52 L 50 58 L 58 52" fill="none" stroke="#ffffff" stroke-width="2"/>
</svg>
