<svg xmlns="http://www.w3.org/2000/svg" viewBox="0 0 500 400" width="500" height="400">
  <defs>
    <linearGradient id="reportGrad" x1="0%" y1="0%" x2="100%" y2="100%">
      <stop offset="0%" style="stop-color:#f59e0b;stop-opacity:1"/>
      <stop offset="100%" style="stop-color:#d97706;stop-opacity:1"/>
    </linearGradient>
  </defs>
  
  <!-- Document background -->
  <rect x="80" y="60" width="300" height="280" rx="10" fill="white" stroke="#e5e7eb" stroke-width="2"/>
  
  <!-- Header -->
  <rect x="80" y="60" width="300" height="50" rx="10" fill="url(#reportGrad)"/>
  <rect x="100" y="75" width="100" height="8" fill="white" opacity="0.8" rx="4"/>
  <rect x="100" y="88" width="60" height="6" fill="white" opacity="0.6" rx="3"/>
  
  <!-- Chart area -->
  <rect x="100" y="130" width="260" height="150" fill="#f9fafb" stroke="#e5e7eb" stroke-width="1"/>
  
  <!-- Line chart -->
  <polyline points="120,250 140,220 160,200 180,180 200,160 220,140 240,160 260,140 280,120 300,100 320,80" 
            fill="none" stroke="#3b82f6" stroke-width="3"/>
  
  <!-- Data points -->
  <circle cx="120" cy="250" r="4" fill="#3b82f6"/>
  <circle cx="140" cy="220" r="4" fill="#3b82f6"/>
  <circle cx="160" cy="200" r="4" fill="#3b82f6"/>
  <circle cx="180" cy="180" r="4" fill="#3b82f6"/>
  <circle cx="200" cy="160" r="4" fill="#3b82f6"/>
  <circle cx="220" cy="140" r="4" fill="#3b82f6"/>
  <circle cx="240" cy="160" r="4" fill="#3b82f6"/>
  <circle cx="260" cy="140" r="4" fill="#3b82f6"/>
  <circle cx="280" cy="120" r="4" fill="#3b82f6"/>
  <circle cx="300" cy="100" r="4" fill="#3b82f6"/>
  <circle cx="320" cy="80" r="4" fill="#3b82f6"/>
  
  <!-- Y-axis labels -->
  <line x1="110" y1="140" x2="110" y2="260" stroke="#9ca3af" stroke-width="1"/>
  <line x1="105" y1="140" x2="115" y2="140" stroke="#9ca3af" stroke-width="1"/>
  <line x1="105" y1="180" x2="115" y2="180" stroke="#9ca3af" stroke-width="1"/>
  <line x1="105" y1="220" x2="115" y2="220" stroke="#9ca3af" stroke-width="1"/>
  <line x1="105" y1="260" x2="115" y2="260" stroke="#9ca3af" stroke-width="1"/>
  
  <!-- X-axis -->
  <line x1="110" y1="260" x2="340" y2="260" stroke="#9ca3af" stroke-width="1"/>
  
  <!-- Stats boxes -->
  <rect x="100" y="300" width="70" height="30" rx="5" fill="#dbeafe"/>
  <rect x="180" y="300" width="70" height="30" rx="5" fill="#dcfce7"/>
  <rect x="260" y="300" width="70" height="30" rx="5" fill="#fef3c7"/>
  
  <!-- Graph icon -->
  <circle cx="400" cy="80" r="30" fill="#f59e0b"/>
  <path d="M 390 85 L 395 80 L 400 75 L 405 70 L 410 75" stroke="white" stroke-width="2" fill="none"/>
  <rect x="388" y="83" width="24" height="12" fill="none" stroke="white" stroke-width="1"/>
</svg>
