<?xml version="1.0" encoding="UTF-8"?>
<svg xmlns="http://www.w3.org/2000/svg" viewBox="0 0 100 100" width="100" height="100">
  <defs>
    <linearGradient id="maleGradient" x1="0%" y1="0%" x2="100%" y2="100%">
      <stop offset="0%" style="stop-color:#4ecdc4;stop-opacity:1" />
      <stop offset="100%" style="stop-color:#44a08d;stop-opacity:1" />
    </linearGradient>
  </defs>
  
  <!-- Fondo circular -->
  <circle cx="50" cy="50" r="48" fill="url(#maleGradient)" stroke="#ffffff" stroke-width="2"/>
  
  <!-- Cara -->
  <circle cx="50" cy="35" r="16" fill="#fdbcb4"/>
  
  <!-- Cabello -->
  <path d="M 34 25 Q 50 15 66 25 Q 64 20 58 20 Q 50 18 42 20 Q 36 20 34 25" fill="#8b4513"/>
  
  <!-- Ojos -->
  <circle cx="44" cy="32" r="2" fill="#333"/>
  <circle cx="56" cy="32" r="2" fill="#333"/>
  
  <!-- Cejas -->
  <path d="M 40 28 L 48 28" stroke="#8b4513" stroke-width="2" stroke-linecap="round"/>
  <path d="M 52 28 L 60 28" stroke="#8b4513" stroke-width="2" stroke-linecap="round"/>
  
  <!-- Nariz -->
  <ellipse cx="50" cy="38" rx="1.5" ry="2.5" fill="#f4a6a0"/>
  
  <!-- Sonrisa -->
  <path d="M 44 42 Q 50 46 56 42" fill="none" stroke="#333" stroke-width="2" stroke-linecap="round"/>
  
  <!-- Cuerpo/Camisa -->
  <path d="M 34 52 Q 34 65 40 75 L 60 75 Q 66 65 66 52 Q 62 50 58 52 L 42 52 Q 38 50 34 52" fill="#4a90e2"/>
  
  <!-- Corbata -->
  <rect x="48" y="52" width="4" height="20" fill="#2c3e50"/>
  <polygon points="48,52 52,52 50,48" fill="#2c3e50"/>
  
  <!-- Collar -->
  <path d="M 42 52 L 50 58 L 58 52" fill="none" stroke="#ffffff" stroke-width="2"/>
</svg>
