<svg xmlns="http://www.w3.org/2000/svg" viewBox="0 0 500 400" width="500" height="400">
  <defs>
    <linearGradient id="dashboardGrad" x1="0%" y1="0%" x2="100%" y2="100%">
      <stop offset="0%" style="stop-color:#3b82f6;stop-opacity:1"/>
      <stop offset="100%" style="stop-color:#1d4ed8;stop-opacity:1"/>
    </linearGradient>
  </defs>
  
  <!-- Dashboard frame -->
  <rect x="50" y="50" width="400" height="300" rx="15" fill="#f8fafc" stroke="#e2e8f0" stroke-width="2"/>
  
  <!-- Header -->
  <rect x="50" y="50" width="400" height="60" rx="15" fill="url(#dashboardGrad)"/>
  <circle cx="80" cy="80" r="8" fill="white" opacity="0.8"/>
  <circle cx="110" cy="80" r="8" fill="white" opacity="0.6"/>
  <circle cx="140" cy="80" r="8" fill="white" opacity="0.4"/>
  
  <!-- Chart bars -->
  <rect x="100" y="150" width="30" height="80" fill="#10b981" rx="3"/>
  <rect x="150" y="170" width="30" height="60" fill="#f59e0b" rx="3"/>
  <rect x="200" y="140" width="30" height="90" fill="#ef4444" rx="3"/>
  <rect x="250" y="160" width="30" height="70" fill="#8b5cf6" rx="3"/>
  <rect x="300" y="130" width="30" height="100" fill="#06b6d4" rx="3"/>
  
  <!-- Stats cards -->
  <rect x="100" y="260" width="80" height="50" rx="8" fill="#dbeafe"/>
  <rect x="200" y="260" width="80" height="50" rx="8" fill="#dcfce7"/>
  <rect x="300" y="260" width="80" height="50" rx="8" fill="#fef3c7"/>
  
  <!-- Icons -->
  <circle cx="120" cy="275" r="6" fill="#3b82f6"/>
  <circle cx="220" cy="275" r="6" fill="#10b981"/>
  <circle cx="320" cy="275" r="6" fill="#f59e0b"/>
</svg>
